<svg xmlns="http://www.w3.org/2000/svg" version="1.1" xmlns:xlink="http://www.w3.org/1999/xlink" xmlns:svgjs="http://svgjs.dev/svgjs" width="1440" height="560" preserveAspectRatio="none" viewBox="0 0 1440 560"><g mask="url(&quot;#SvgjsMask1016&quot;)" fill="none"><path d="M0 556.96L10 505.58L20 447.49L30 453.44L40 425.43L50 430.05L60 486.19L70 437.67L80 371L90 435.9L100 393.52L110 387.28L120 433.75L130 416.77L140 390.74L150 436.83L160 407.33L170 421.91L180 428.14L190 462.77L200 457.82L210 398.77L220 452.47L230 498.08L240 429.09L250 447.47L260 411.14L270 434.17L280 395.8L290 357.63L300 379.33L310 422.85L320 405.74L330 418.44L340 383.53L350 340.36L360 279.08L370 215.36L380 225.64L390 162.66L400 108.64L410 135.79L420 69.17L430 29.05L440 83.26L450 110.59L460 153.65L470 92.13L480 34.86L490 59.93L500 24.22L510 30.56L520 54.26L530 11.52L540 30.47L550 33.91L560 14.86L570 20.59L580 76.48L590 85.89L600 150.07L610 182.42L620 249.62L630 222.77L640 232.43L650 287.75L660 221.61L670 247.21L680 285.69L690 269.47L700 287.27L710 311.53L720 330.57L730 337.92L740 349.84L750 381.31L760 406.31L770 470.95L780 459.11L790 467.13L800 467.64L810 523.45L820 555.65L830 558.58L840 534.99L850 536.17L860 469.46L870 532.97L880 539.82L890 483.56L900 484.93L910 456.07L920 481.31L930 512.03L940 540.06L950 504.29L960 538.36L970 555.62L980 557.31L990 558.41L1000 507.17L1010 473.65L1020 517.04L1030 507.52L1040 441.94L1050 487.26L1060 498.26L1070 488.41L1080 537.57L1090 552.13L1100 494.37L1110 427.99L1120 381.69L1130 441.59L1140 386.69L1150 416.53L1160 428.85L1170 389.39L1180 406.96L1190 350.88L1200 416.82L1210 471.39L1220 468.61L1230 425.7L1240 399.99L1250 422.03L1260 485.68L1270 532.34L1280 477.44L1290 522.19L1300 455.45L1310 434.65L1320 493.27L1330 491.71L1340 480.54L1350 416.82L1360 373.89L1370 443.81L1380 445.75L1390 447.16L1400 478.03L1410 523.84L1420 513.79L1430 503.1L1440 524.9" stroke="rgba(226, 181, 0, 1)" stroke-width="2"></path><path d="M0 556.96L10 505.58L20 447.49L30 453.44L40 425.43L50 430.05L60 486.19L70 437.67L80 371L90 435.9L100 393.52L110 387.28L120 433.75L130 416.77L140 390.74L150 436.83L160 407.33L170 421.91L180 428.14L190 462.77L200 457.82L210 398.77L220 452.47L230 498.08L240 429.09L250 447.47L260 411.14L270 434.17L280 395.8L290 357.63L300 379.33L310 422.85L320 405.74L330 418.44L340 383.53L350 340.36L360 279.08L370 215.36L380 225.64L390 162.66L400 108.64L410 135.79L420 69.17L430 29.05L440 83.26L450 110.59L460 153.65L470 92.13L480 34.86L490 59.93L500 24.22L510 30.56L520 54.26L530 11.52L540 30.47L550 33.91L560 14.86L570 20.59L580 76.48L590 85.89L600 150.07L610 182.42L620 249.62L630 222.77L640 232.43L650 287.75L660 221.61L670 247.21L680 285.69L690 269.47L700 287.27L710 311.53L720 330.57L730 337.92L740 349.84L750 381.31L760 406.31L770 470.95L780 459.11L790 467.13L800 467.64L810 523.45L820 555.65L830 558.58L840 534.99L850 536.17L860 469.46L870 532.97L880 539.82L890 483.56L900 484.93L910 456.07L920 481.31L930 512.03L940 540.06L950 504.29L960 538.36L970 555.62L980 557.31L990 558.41L1000 507.17L1010 473.65L1020 517.04L1030 507.52L1040 441.94L1050 487.26L1060 498.26L1070 488.41L1080 537.57L1090 552.13L1100 494.37L1110 427.99L1120 381.69L1130 441.59L1140 386.69L1150 416.53L1160 428.85L1170 389.39L1180 406.96L1190 350.88L1200 416.82L1210 471.39L1220 468.61L1230 425.7L1240 399.99L1250 422.03L1260 485.68L1270 532.34L1280 477.44L1290 522.19L1300 455.45L1310 434.65L1320 493.27L1330 491.71L1340 480.54L1350 416.82L1360 373.89L1370 443.81L1380 445.75L1390 447.16L1400 478.03L1410 523.84L1420 513.79L1430 503.1L1440 524.9L1440 560L0 560z" fill="url(&quot;#SvgjsLinearGradient1017&quot;)"></path></g><defs><mask id="SvgjsMask1016"><rect width="1440" height="560" fill="#ffffff"></rect></mask><linearGradient x1="50%" y1="0%" x2="50%" y2="100%" id="SvgjsLinearGradient1017"><stop stop-opacity="0.65" stop-color="rgba(226, 181, 0, 1)" offset="0"></stop><stop stop-opacity="0" stop-color="#ffeeaa" offset="0.8"></stop></linearGradient></defs></svg>