<svg xmlns="http://www.w3.org/2000/svg" version="1.1" viewBox="-5.0 -10.0 110.0 135.0">
 <path d="m15.625 40.625h23.438c4.3086 0 7.8125-3.5039 7.8125-7.8125v-17.188c0-4.3086-3.5039-7.8125-7.8125-7.8125h-23.438c-4.3086 0-7.8125 3.5039-7.8125 7.8125v17.188c0 4.3086 3.5039 7.8125 7.8125 7.8125zm-4.6875-25c0-2.5859 2.1016-4.6875 4.6875-4.6875h23.438c2.5859 0 4.6875 2.1016 4.6875 4.6875v17.188c0 2.5859-2.1016 4.6875-4.6875 4.6875h-23.438c-2.5859 0-4.6875-2.1016-4.6875-4.6875z"/>
 <path d="m84.375 59.375h-23.438c-4.3086 0-7.8125 3.5039-7.8125 7.8125v17.188c0 4.3086 3.5039 7.8125 7.8125 7.8125h23.438c4.3086 0 7.8125-3.5039 7.8125-7.8125v-17.188c0-4.3086-3.5039-7.8125-7.8125-7.8125zm4.6875 25c0 2.5859-2.1016 4.6875-4.6875 4.6875h-23.438c-2.5859 0-4.6875-2.1016-4.6875-4.6875v-17.188c0-2.5859 2.1016-4.6875 4.6875-4.6875h23.438c2.5859 0 4.6875 2.1016 4.6875 4.6875z"/>
 <path d="m84.375 7.8125h-23.438c-4.3086 0-7.8125 3.5039-7.8125 7.8125v29.688c0 4.3086 3.5039 7.8125 7.8125 7.8125h23.438c4.3086 0 7.8125-3.5039 7.8125-7.8125v-29.688c0-4.3086-3.5039-7.8125-7.8125-7.8125zm4.6875 37.5c0 2.5859-2.1016 4.6875-4.6875 4.6875h-23.438c-2.5859 0-4.6875-2.1016-4.6875-4.6875v-29.688c0-2.5859 2.1016-4.6875 4.6875-4.6875h23.438c2.5859 0 4.6875 2.1016 4.6875 4.6875z"/>
 <path d="m39.062 92.188c4.3086 0 7.8125-3.5039 7.8125-7.8125v-29.688c0-4.3086-3.5039-7.8125-7.8125-7.8125h-23.438c-4.3086 0-7.8125 3.5039-7.8125 7.8125v29.688c0 4.3086 3.5039 7.8125 7.8125 7.8125zm-28.125-7.8125v-29.688c0-2.5859 2.1016-4.6875 4.6875-4.6875h23.438c2.5859 0 4.6875 2.1016 4.6875 4.6875v29.688c0 2.5859-2.1016 4.6875-4.6875 4.6875h-23.438c-2.5859 0-4.6875-2.1016-4.6875-4.6875z"/>
<text x="0.0" y="117.5" font-size="5.0" font-weight="bold" font-family="Arbeit Regular, Helvetica, Arial-Unicode, Arial, Sans-serif" fill="#000000">Created by Sita Raisita</text><text x="0.0" y="122.5" font-size="5.0" font-weight="bold" font-family="Arbeit Regular, Helvetica, Arial-Unicode, Arial, Sans-serif" fill="#000000">from Noun Project</text></svg>